<?xml version="1.0" standalone="no"?>
<!DOCTYPE svg PUBLIC "-//W3C//DTD SVG 20010904//EN"
 "http://www.w3.org/TR/2001/REC-SVG-20010904/DTD/svg10.dtd">
<svg version="1.0" xmlns="http://www.w3.org/2000/svg"
 width="960.000000pt" height="960.000000pt" viewBox="0 0 960.000000 960.000000"
 preserveAspectRatio="xMidYMid meet">
<metadata>
Created by potrace 1.14, written by Peter Selinger 2001-2017
</metadata>
<g transform="translate(0.000000,960.000000) scale(0.100000,-0.100000)"
fill="#000000" stroke="none">
<path d="M233 7937 c-86 -31 -154 -92 -195 -175 l-33 -67 -2 -2315 c-3 -2159
-2 -2319 14 -2361 45 -117 114 -184 229 -224 45 -16 170 -17 1744 -17 l1695 0
90 -44 c50 -24 98 -44 106 -44 8 0 19 -4 25 -8 9 -9 109 -41 194 -62 25 -6 61
-16 80 -21 55 -14 192 -37 267 -44 24 -2 46 -6 50 -8 6 -4 9 -270 4 -368 -1
-13 -13 -16 -63 -16 -64 0 -344 -11 -453 -17 -164 -10 -295 -18 -340 -22 -27
-2 -79 -6 -115 -9 -36 -3 -81 -7 -100 -10 -19 -2 -66 -7 -105 -10 -38 -4 -77
-8 -85 -11 -8 -2 -35 -6 -60 -9 -25 -3 -56 -7 -70 -10 -14 -2 -45 -7 -70 -10
-25 -4 -73 -13 -106 -20 -34 -8 -73 -16 -85 -19 -55 -11 -67 -15 -131 -41 -83
-33 -106 -56 -90 -90 6 -13 26 -32 43 -41 38 -19 169 -65 169 -59 0 3 12 0 26
-5 15 -6 41 -12 58 -15 17 -2 42 -7 56 -9 22 -5 67 -13 125 -22 72 -10 106
-15 150 -20 28 -3 61 -7 75 -9 55 -7 155 -17 204 -20 28 -2 76 -6 106 -9 30
-3 100 -8 155 -11 55 -4 125 -8 155 -10 292 -20 1334 -27 1685 -12 277 13 457
23 555 32 30 3 82 7 115 10 33 3 80 7 105 10 25 3 70 8 100 10 30 2 64 6 75 9
11 2 49 7 85 11 36 4 68 9 71 11 4 2 30 6 59 9 29 3 55 7 59 9 4 3 26 7 50 11
24 3 54 10 67 15 13 5 24 8 24 6 0 -7 119 33 158 53 107 55 69 111 -109 161
-81 23 -99 28 -144 35 -16 3 -37 8 -45 10 -8 2 -35 7 -60 10 -25 3 -56 8 -70
10 -26 5 -72 11 -150 20 -25 3 -61 7 -80 10 -19 2 -62 7 -95 10 -33 3 -78 8
-100 10 -59 7 -147 13 -430 30 -71 5 -216 10 -500 20 -49 2 -92 3 -95 4 -4 1
-5 344 -1 387 1 6 31 16 69 23 134 24 329 77 407 111 11 5 61 26 110 48 l90
40 1660 0 c913 0 1676 2 1695 5 118 20 231 117 270 231 20 60 20 68 18 2370
l-3 2311 -26 56 c-37 79 -90 133 -167 171 l-67 33 -4520 2 -4520 3 -62 -23z"/>
</g>
</svg>
